# xmcd
#
# Track frame offsets: 
#        150
#        17215
#        36492
#        51447
#        67372
#        81182
#        96297
#        123997
#        141155
#        156305
#        174530
#        194230
#        210947
#        233097
#        261052
#        281672
#        302780
#
# Disc length: 4376 seconds
#
# Revision: 9
# Processed by: cddbd v1.5.2PL0 Copyright (c) Steve Scherf et al.
# Submitted via: ExactAudioCopy v1.0b3
#
DISCID=06111611
DTITLE=Carpenter, Mary Chapin - Party Doll And Other Favorites
DYEAR=1999
DGENRE=Country
TTITLE0=Can't Take Love For Granted
TTITLE1=Wherever You Are
TTITLE2=Down At The Twist And Shout [Live - Super Bowl XXXI]
TTITLE3=I Feel Lucky
TTITLE4=Dreamland
TTITLE5=Passionate Kisses
TTITLE6=Quittin' Time [Live - Ryman Auditorium]
TTITLE7=This Shirt
TTITLE8=Grow Old With Me
TTITLE9=He Thinks He'll Keep Her
TTITLE10=I Take My Chances [Live - Madison, WI]
TTITLE11=Shut Up And Kiss Me
TTITLE12=The Hard Way [Live - Wolf Trap]
TTITLE13=10,000 Miles
TTITLE14=Stones In The Road [Live - Her Majesty's Theatre, London]
TTITLE15=Almost Home
TTITLE16=Party Doll
EXTD=
EXTT0=
EXTT1=
EXTT2=
EXTT3=
EXTT4=
EXTT5=
EXTT6=
EXTT7=
EXTT8=
EXTT9=
EXTT10=
EXTT11=
EXTT12=
EXTT13=
EXTT14=
EXTT15=
EXTT16=
PLAYORDER=
